<svg xmlns="http://www.w3.org/2000/svg" xmlns:xlink="http://www.w3.org/1999/xlink" viewBox="0 0 500 500"><defs><clipPath id="freepik--clip-path--inject-5"><polygon points="308.19 368 320.08 265.67 179.91 267.59 180.75 366.4 308.19 368" style="fill:#419183;stroke:#263238;stroke-linecap:round;stroke-linejoin:round"></polygon></clipPath><clipPath id="freepik--clip-path-2--inject-5"><polygon points="166.75 314.51 172.41 292.81 169.99 215.58 234.77 202.34 263.96 271.21 278.17 289.14 268.28 306.29 191.06 322.69 166.75 314.51" style="fill:#419183;stroke:#263238;stroke-linecap:round;stroke-linejoin:round"></polygon></clipPath><clipPath id="freepik--clip-path-3--inject-5"><polygon points="215.71 285.22 232.12 269.94 271.47 203.44 333.25 226.99 320.98 300.77 323.37 323.52 305.83 332.7 231.84 305.16 215.71 285.22" style="fill:#419183;stroke:#263238;stroke-linecap:round;stroke-linejoin:round"></polygon></clipPath><clipPath id="freepik--clip-path-4--inject-5"><polygon points="292.68 358.52 279.96 373.69 201.07 376.45 178.55 364.18 178.75 363.75 187.88 343.79 198.89 267.31 264.99 265.51 271.56 294 281.79 338.4 292.64 358.44 292.68 358.52" style="fill:#419183;stroke:#263238;stroke-linecap:round;stroke-linejoin:round"></polygon></clipPath></defs><g id="freepik--background-simple--inject-5"><path d="M109.6,442H400.47c86.2-106.33,68.13-189.31,25.25-215.11-27.86-16.77-58.47,0-79.63-26.09s3.36-80.69-27.43-124.56-84.33-23.78-111.82,8.37-39,119.76-91.3,105.78S10,230.48,57.53,300.3C102,365.59,108.89,433.47,109.6,442Z" style="fill:#419183"></path><path d="M109.6,442H400.47c86.2-106.33,68.13-189.31,25.25-215.11-27.86-16.77-58.47,0-79.63-26.09s3.36-80.69-27.43-124.56-84.33-23.78-111.82,8.37-39,119.76-91.3,105.78S10,230.48,57.53,300.3C102,365.59,108.89,433.47,109.6,442Z" style="fill:#fff;opacity:0.7000000000000001"></path></g><g id="freepik--Floor--inject-5"><line x1="46.16" y1="442" x2="453.84" y2="442" style="fill:none;stroke:#263238;stroke-linecap:round;stroke-linejoin:round"></line></g><g id="freepik--Banners--inject-5"><path d="M129.73,86s59.91-16,120.92-15.34,120,24,120,24l-4.75,31.53S317.05,104,252.21,101.59s-118.79,19.88-118.79,19.88Z" style="fill:none;stroke:#263238;stroke-linecap:round;stroke-linejoin:round"></path><path d="M133.42,121.47s-2.9,23.72-21.95,21.35-31.81,20.56-31.81,20.56" style="fill:none;stroke:#263238;stroke-linecap:round;stroke-linejoin:round"></path><path d="M129.73,86s-9.89,7.13-17.66-4.79S85.92,74.9,85.92,74.9" style="fill:none;stroke:#263238;stroke-linecap:round;stroke-linejoin:round"></path><path d="M370.63,94.61c11.38.73,18.91,15.19,23.85,7.57s16.27-12.69,16.27-12.69" style="fill:none;stroke:#263238;stroke-linecap:round;stroke-linejoin:round"></path><path d="M365.88,126.14c10.59,12.72,9.84,10.13,13.38,20.52s12.43,8.11,17.87,12S402.31,173,402.31,173" style="fill:none;stroke:#263238;stroke-linecap:round;stroke-linejoin:round"></path><path d="M150.67,90c2.12-.58,3.3.44,3.44,2.72l0,.45-2.06.54,0-.59c-.07-1-.49-1.29-1.18-1.1s-1.06.68-1,1.7.56,1.68,2.06,2.57c1.92,1.14,2.57,2.17,2.67,3.77a3.86,3.86,0,0,1-3,4.37c-2.11.57-3.28-.4-3.44-2.63l-.06-.86,2-.57.07,1c.06,1,.52,1.23,1.2,1s1.1-.66,1-1.66-.55-1.67-2-2.55c-1.92-1.13-2.57-2.14-2.68-3.76A3.9,3.9,0,0,1,150.67,90Z" style="fill:#419183"></path><path d="M163.09,101.42l-2.21.52c-.17-.82-.35-1.64-.52-2.46l-2.68.66c-.07.88-.14,1.75-.22,2.63l-2,.5c.45-4.85.9-9.76,1.36-14.7l3.23-.8Q161.57,94.66,163.09,101.42Zm-5.24-3.26,2.1-.51q-.72-3.45-1.45-6.92h0C158.25,93.22,158.05,95.7,157.85,98.16Z" style="fill:#419183"></path><path d="M163.34,87l2.22-.51q.31,6.15.63,12.2l3.63-.78.09,2c-1.94.4-3.88.83-5.81,1.27Q163.73,94.16,163.34,87Z" style="fill:#419183"></path><path d="M172.71,91.07l3.07-.6c0,.68.06,1.36.08,2-1,.19-2,.39-3.05.6.06,1.38.12,2.77.19,4.15,1.27-.26,2.55-.51,3.83-.75l.09,2c-2,.38-4,.77-6,1.19q-.34-7.06-.68-14.23,3-.64,6.12-1.22c0,.68.05,1.37.08,2.06q-1.93.36-3.87.75Q172.62,89.09,172.71,91.07Z" style="fill:#419183"></path><path d="M187.55,82.33l.06,2q-1.47,6.47-2.91,12.86l-2.24.37q1.42-6.35,2.86-12.78c-1.5.24-3,.49-4.5.76,0-.69,0-1.38-.07-2.07C183,83.06,185.27,82.68,187.55,82.33Z" style="fill:#419183"></path><path d="M189,85.59a3.67,3.67,0,0,1,3.34-4.14c2.25-.32,3.51.86,3.56,3.17q.09,3.75.18,7.46a3.59,3.59,0,0,1-3.34,4c-2.2.31-3.45-.8-3.52-3.07C189.13,90.57,189.05,88.09,189,85.59Zm2.48,7.26c0,1,.49,1.34,1.21,1.24s1.16-.55,1.13-1.56c-.07-2.57-.13-5.15-.2-7.75,0-1-.49-1.36-1.22-1.26s-1.17.56-1.14,1.59Q191.36,89,191.46,92.85Z" style="fill:#419183"></path><path d="M197.2,83.19a2.3,2.3,0,0,1,2.16-2.6c1.44-.17,2.22.58,2.25,2.07s.06,3.17.09,4.74A2.26,2.26,0,0,1,199.55,90c-1.42.17-2.21-.55-2.24-2S197.24,84.77,197.2,83.19Zm1.56,4.66c0,.64.29.87.77.81s.74-.35.72-1c0-1.64-.06-3.29-.1-5,0-.64-.31-.87-.77-.82s-.74.36-.73,1C198.69,84.56,198.73,86.21,198.76,87.85Zm6.36-7.8,1.36-.14q-2.78,7.55-5.48,15l-1.34.16Q202.36,87.61,205.12,80.05Zm-.61,7.58a2.24,2.24,0,0,1,2.17-2.53c1.44-.14,2.22.62,2.24,2.1l.06,4.7a2.22,2.22,0,0,1-2.17,2.49c-1.42.14-2.2-.59-2.22-2.06S204.54,89.2,204.51,87.63ZM206,92.29c0,.63.28.87.76.82s.74-.34.73-1c0-1.63-.05-3.27-.07-4.91,0-.63-.3-.87-.76-.83s-.74.34-.74,1C206,89,206,90.66,206,92.29Z" style="fill:#419183"></path><path d="M213.47,82.78c0-2.32,1.21-3.76,3.49-3.92s3.51,1.11,3.52,3.44c0,2.51,0,5,0,7.5A3.43,3.43,0,0,1,217,93.6c-2.24.16-3.48-1-3.5-3.33Q213.5,86.55,213.47,82.78Zm2.35,7.46c0,1,.47,1.38,1.2,1.33s1.18-.47,1.18-1.49c0-2.58,0-5.18,0-7.78,0-1-.47-1.41-1.2-1.35s-1.2.47-1.19,1.51C215.79,85.07,215.81,87.66,215.82,90.24Z" style="fill:#419183"></path><path d="M224.28,85.05l3-.13c0,.69,0,1.38,0,2.06l-3,.13c0,2,0,4,0,5.91l-2.29.12V78.72q3.06-.16,6.14-.29c0,.7,0,1.4,0,2.09l-3.82.16Z" style="fill:#419183"></path><path d="M231.49,84.78l3-.07,0,2.07-3,.06c0,2,0,4,0,5.92l-2.3.07q0-7.15.1-14.44,3.06-.11,6.14-.15l0,2.08c-1.27,0-2.55.05-3.82.09C231.52,81.87,231.51,83.33,231.49,84.78Z" style="fill:#419183"></path><path d="M239.53,81.69c0-2.33,1.3-3.68,3.59-3.67s3.5,1.38,3.45,3.71c-.06,2.51-.11,5-.17,7.51-.05,2.29-1.31,3.57-3.56,3.56s-3.47-1.31-3.43-3.6Q239.47,85.46,239.53,81.69Zm2.18,7.65c0,1,.43,1.41,1.17,1.42s1.19-.38,1.22-1.41q.08-3.87.15-7.79c0-1-.43-1.44-1.17-1.45s-1.21.39-1.23,1.43C241.8,84.16,241.76,86.75,241.71,89.34Z" style="fill:#419183"></path><path d="M250.16,82.32h0q-.13,5.25-.27,10.42l-2.06,0q.17-7.17.34-14.45l2.92.07c.7,2.93,1.4,5.86,2.1,8.76h0c.08-2.88.16-5.77.24-8.69l2.08.08q-.22,7.29-.44,14.44l-2.36-.09Q251.45,87.6,250.16,82.32Z" style="fill:#419183"></path><path d="M263.58,78.72c2.26.14,3.36,1.57,3.27,3.9l0,.45-2.18-.15c0-.2,0-.4,0-.6,0-1-.37-1.46-1.1-1.51s-1.18.32-1.21,1.36.39,1.87,1.85,3.27c1.86,1.8,2.42,3,2.36,4.68-.1,2.29-1.32,3.5-3.56,3.36s-3.38-1.5-3.3-3.79l0-.88,2.18.12c0,.34,0,.68,0,1,0,1,.41,1.41,1.14,1.46s1.2-.29,1.24-1.32-.39-1.85-1.84-3.24c-1.87-1.79-2.44-3-2.38-4.67C260.12,79.86,261.32,78.58,263.58,78.72Z" style="fill:#419183"></path><path d="M270.39,85.53l3.16.28c0,.68-.07,1.37-.1,2l-3.15-.27c-.06,1.4-.12,2.8-.19,4.2,1.32.11,2.64.22,4,.35,0,.68-.07,1.36-.1,2-2.08-.19-4.15-.37-6.23-.53q.3-7.14.6-14.42c2.11.16,4.21.34,6.32.54,0,.7-.07,1.39-.1,2.08l-4-.35Z" style="fill:#419183"></path><path d="M276.09,79.9c.77.08,1.54.15,2.31.24q-.31,6.23-.63,12.36c1.25.14,2.5.27,3.75.42,0,.68-.08,1.35-.11,2q-3-.35-6-.64Q275.74,87.17,276.09,79.9Z" style="fill:#419183"></path><path d="M285.15,87.07l3.14.4c-.05.69-.09,1.37-.13,2.06L285,89.12l-.24,4.19c1.31.16,2.62.34,3.92.51l-.12,2q-3.09-.42-6.19-.78.39-7.14.8-14.39c2.09.25,4.18.51,6.27.8,0,.69-.09,1.39-.13,2.08-1.32-.18-2.64-.36-4-.52C285.3,84.38,285.23,85.73,285.15,87.07Z" style="fill:#419183"></path><path d="M296.9,91.73c0,.63-.09,1.26-.13,1.89-.16,2.28-1.39,3.39-3.61,3s-3.29-1.78-3.14-4.06c.15-2.48.31-5,.46-7.47.15-2.32,1.4-3.49,3.65-3.15s3.31,1.86,3.15,4.17l-.09,1.4L295,87.23c0-.52.07-1,.1-1.55.07-1-.36-1.5-1.09-1.61s-1.21.22-1.27,1.25c-.17,2.6-.34,5.18-.5,7.76-.07,1,.36,1.45,1.08,1.55s1.2-.18,1.26-1.2c.05-.68.09-1.36.14-2Z" style="fill:#419183"></path><path d="M298.25,82.81q3.53.57,7,1.22c0,.69-.11,1.38-.16,2.07l-2.37-.43q-.45,6.17-.9,12.25l-2.24-.38q.43-6.09.87-12.27l-2.37-.39C298.15,84.19,298.2,83.5,298.25,82.81Z" style="fill:#419183"></path><path d="M308.06,90.72l3.08.61c-.06.68-.11,1.36-.17,2l-3.08-.61c-.11,1.39-.22,2.78-.32,4.17,1.28.24,2.57.5,3.85.76-.05.68-.11,1.35-.17,2q-3-.61-6.08-1.19.54-7.08,1.1-14.3c2.06.38,4.11.79,6.16,1.21-.05.69-.11,1.38-.17,2.07-1.29-.27-2.59-.53-3.89-.78C308.27,88.05,308.16,89.39,308.06,90.72Z" style="fill:#419183"></path><path d="M313.83,85.72l3.55.77c2.24.5,3.22,2,3,4.32s-.43,4.81-.65,7.19-1.39,3.23-3.6,2.75l-3.51-.76C313,95.28,313.42,90.52,313.83,85.72Zm2.07,2.55c-.3,3.41-.59,6.81-.88,10.18l1.25.27c.71.16,1.16-.11,1.25-1.12.22-2.46.43-4.93.65-7.41.09-1-.3-1.49-1-1.65Z" style="fill:#419183"></path><path d="M325.27,88.35l2.22.56q-.69,7.16-1.37,14.19l-2.19-.54Q324.59,95.51,325.27,88.35Z" style="fill:#419183"></path><path d="M328.46,89.16q3.42.87,6.81,1.83l-.21,2-2.3-.63q-.61,6.1-1.23,12.11l-2.17-.58q.6-6,1.21-12.12l-2.31-.61C328.33,90.52,328.39,89.84,328.46,89.16Z" style="fill:#419183"></path><path d="M337.77,97.88l3,.88c-.08.67-.15,1.34-.22,2l-3-.87c-.15,1.37-.3,2.74-.44,4.11,1.24.36,2.48.72,3.72,1.1-.08.66-.15,1.32-.22,2q-2.92-.88-5.87-1.71.72-7,1.48-14.13c2,.56,4,1.15,5.94,1.75-.07.68-.15,1.35-.22,2q-1.87-.57-3.75-1.11C338.05,95.25,337.91,96.57,337.77,97.88Z" style="fill:#419183"></path><path d="M346.91,104.87h0q1.29-4.74,2.61-9.53l3,1q-.85,7.06-1.69,14l-2-.66c.4-3.32.79-6.66,1.19-10l0,0q-1.32,4.81-2.61,9.56l-2-.64c-.14-3.45-.28-6.91-.43-10.4h0q-.57,5-1.13,9.91l-1.86-.58q.78-7,1.57-14.08l3,.94C346.64,97.88,346.78,101.39,346.91,104.87Z" style="fill:#419183"></path><path d="M379.07,215.25l-.54,2.12c-.41,1.63.16,2.4,1.3,2.69s2-.12,2.42-1.74l1.28-5c.41-1.63-.15-2.43-1.29-2.72s-2,.14-2.43,1.77l-.17.69-3.39-.87,4-13.06,9.45,2.41-.83,3.26-6.26-1.59L381,208.55l.07,0a3.48,3.48,0,0,1,3.52-.88c2.64.68,3.5,2.87,2.64,6.23L385.89,219c-.93,3.65-3.28,5.27-6.8,4.37s-4.81-3.44-3.89-7.09l.49-1.89Z" style="fill:#419183"></path><path d="M391,207.67c.93-3.64,3.38-5.24,6.9-4.34s4.91,3.47,4,7.11l-3,11.86c-.93,3.65-3.38,5.24-6.9,4.35s-4.91-3.47-4-7.12Zm.51,13c-.42,1.63.14,2.43,1.28,2.72s2-.14,2.43-1.77l3.14-12.32c.41-1.62-.15-2.43-1.29-2.72s-2,.15-2.43,1.78Z" style="fill:#419183"></path><path d="M405.29,207.47a2.07,2.07,0,1,1,4,1l-1.11,4.34a2.07,2.07,0,1,1-4-1Zm.2,4.77c-.15.59,0,.9.46,1s.75-.07.9-.66l1.15-4.54c.15-.58-.05-.9-.47-1s-.74.07-.89.66Zm7.54-5,1.23.31-8.59,11.91-1.23-.31Zm-2.41,6.7a2.07,2.07,0,1,1,4,1l-1.11,4.34a2.07,2.07,0,1,1-4-1Zm.19,4.78c-.15.58,0,.89.47,1s.75-.07.89-.66l1.16-4.54c.15-.58-.05-.89-.47-1s-.74.07-.89.66Z" style="fill:#419183"></path><path d="M401,222.66a1.89,1.89,0,1,1,3.65.93l-1,4a1.89,1.89,0,1,1-3.65-.93Zm.17,4.37c-.14.54,0,.81.43.91s.67-.05.81-.6l1-4.13c.14-.55,0-.81-.43-.91s-.67,0-.81.59Z" style="fill:#419183"></path><path d="M406.23,225.66l1.55.4-.28,1.09-1.55-.39-.81,3.16-1.2-.31,1.95-7.66,3.18.81-.27,1.1-2-.51Z" style="fill:#419183"></path><path d="M410,226.62l1.55.4-.28,1.09-1.55-.4-.8,3.16-1.21-.3,1.95-7.66,3.19.81-.28,1.1-2-.51Z" style="fill:#419183"></path><polyline points="377.54 237.64 417.51 247.21 419.39 240.61" style="fill:none;stroke:#263238;stroke-linecap:round;stroke-linejoin:round"></polyline><polyline points="362.52 196.85 355.44 232.36 369.64 235.75" style="fill:none;stroke:#263238;stroke-linecap:round;stroke-linejoin:round"></polyline><polyline points="420.87 235.4 431.15 199.27 365.02 184.32 363.52 191.88" style="fill:none;stroke:#263238;stroke-linecap:round;stroke-linejoin:round"></polyline><line x1="348.33" y1="392.78" x2="347.23" y2="397.93" style="fill:none;stroke:#263238;stroke-linecap:round;stroke-linejoin:round"></line><line x1="375.88" y1="263.29" x2="350.01" y2="384.88" style="fill:none;stroke:#263238;stroke-linecap:round;stroke-linejoin:round"></line><line x1="380.63" y1="240.94" x2="377.54" y2="255.48" style="fill:none;stroke:#263238;stroke-linecap:round;stroke-linejoin:round"></line><line x1="369.88" y1="313.12" x2="355.09" y2="384.22" style="fill:none;stroke:#263238;stroke-linecap:round;stroke-linejoin:round"></line><line x1="384.69" y1="241.91" x2="371.44" y2="305.62" style="fill:none;stroke:#263238;stroke-linecap:round;stroke-linejoin:round"></line><path d="M89.41,232l-2.63.4-2.14-13.94,2.63-.4.92,6,3-.46-.92-6,2.69-.41,2.13,13.94-2.68.41-.91-6-3,.45Z" style="fill:#419183"></path><path d="M105.52,229.53l-2.66.41-.84-2.46-3.24.49-.06,2.6-2.42.37.54-14.35,3.86-.59ZM98.83,226l2.54-.39L99,218.78H99Z" style="fill:#419183"></path><path d="M104.59,215.4l2.64-.4L109.06,227l4.33-.66.31,2-7,1.07Z" style="fill:#419183"></path><path d="M116.29,220l3.4-.52.3,2-3.4.52.89,5.76-2.64.4-2.13-13.94,7-1.07.31,2-4.34.67Z" style="fill:#419183"></path><path d="M94.6,236.93l.24,1.59c.3,2-.67,3.2-3,3.55l-1.09.17.7,4.6-2.31.36L87.28,235l3.41-.52C93,234.07,94.3,235,94.6,236.93Zm-4.74-.59.64,4.15,1.09-.17c.74-.11,1.09-.45,1-1.32l-.28-1.84c-.14-.88-.58-1.1-1.31-1Z" style="fill:#419183"></path><path d="M101.92,245.24a3.44,3.44,0,0,1-.44-1.47l-.29-1.93c-.18-1.13-.7-1.48-1.75-1.32l-.8.12.76,5-2.31.35-1.88-12.25,3.49-.53c2.4-.37,3.57.4,3.86,2.29l.15,1a2.38,2.38,0,0,1-1.14,2.7v0c1.22.22,1.73,1.07,1.93,2.35l.29,1.89a3.12,3.12,0,0,0,.48,1.45Zm-4.13-10.11.58,3.76.9-.14c.87-.13,1.34-.53,1.19-1.51l-.18-1.2c-.14-.88-.55-1.21-1.37-1.08Z" style="fill:#419183"></path><path d="M103.67,232.44l2.31-.36,1.88,12.25-2.31.35Z" style="fill:#419183"></path><path d="M115.55,238.48l.25,1.62c.3,2-.71,3.26-3,3.61s-3.62-.59-3.92-2.55l-1-6.37c-.31-2,.7-3.26,3-3.6s3.62.59,3.92,2.55l.18,1.19-2.18.33-.2-1.31a1.21,1.21,0,1,0-2.4.37l1,6.61a1.21,1.21,0,0,0,2.4-.37l-.27-1.75Z" style="fill:#419183"></path><path d="M118.89,235.39l3.17-.49.27,1.75-3.18.49.55,3.58,4-.61.27,1.75-6.31,1-1.88-12.25,6.31-1,.27,1.75-4,.62Z" style="fill:#419183"></path><polyline points="100.2 257.22 140.86 251.19 140.15 244.36" style="fill:none;stroke:#263238;stroke-linecap:round;stroke-linejoin:round"></polyline><polyline points="71.06 224.97 77.73 260.56 92.17 258.42" style="fill:none;stroke:#263238;stroke-linecap:round;stroke-linejoin:round"></polyline><polyline points="139.58 238.99 135.64 201.62 68.71 212.41 70.13 219.99" style="fill:none;stroke:#263238;stroke-linecap:round;stroke-linejoin:round"></polyline><line x1="130.96" y1="412.07" x2="131.86" y2="417.25" style="fill:none;stroke:#263238;stroke-linecap:round;stroke-linejoin:round"></line><line x1="108.23" y1="281.64" x2="129.57" y2="404.11" style="fill:none;stroke:#263238;stroke-linecap:round;stroke-linejoin:round"></line><line x1="104.3" y1="259.13" x2="106.85" y2="273.77" style="fill:none;stroke:#263238;stroke-linecap:round;stroke-linejoin:round"></line><line x1="121.24" y1="330.11" x2="134.04" y2="401.6" style="fill:none;stroke:#263238;stroke-linecap:round;stroke-linejoin:round"></line><line x1="108.43" y1="258.51" x2="119.89" y2="322.57" style="fill:none;stroke:#263238;stroke-linecap:round;stroke-linejoin:round"></line></g><g id="freepik--character-1--inject-5"><path d="M97.6,401.38a56,56,0,0,0-.62,6.54c.2,2.61.79,23.71.79,23.71l-.79.83c-.79.83-2.18-1.31-2.18-1.31s0-1.3-3.88-19.93C89.83,406,88.11,399.9,86.7,394a78.77,78.77,0,0,1-2.38-14.13c-.35-8.18,3-13,3-13l12.41-6.27s1.79,2.39,3,3.87-2.42,17.7-2.42,17.7S98.57,393.69,97.6,401.38Z" style="fill:#419183;stroke:#263238;stroke-linecap:round;stroke-linejoin:round"></path><path d="M97.77,431.63l-.79.83c-.79.83-2.18-1.31-2.18-1.31s0-1.3-3.88-19.93C89.83,406,88.11,399.9,86.7,394a40,40,0,0,0,10.9,7.38,56,56,0,0,0-.62,6.54C97.18,410.53,97.77,431.63,97.77,431.63Z" style="fill:#263238"></path><path d="M81.8,344.41c-1.54.39-7,19.47-7,19.47s1.88,3.23,2.08,3,7.39-14.77,7.39-14.77Z" style="fill:#fff;stroke:#263238;stroke-linecap:round;stroke-linejoin:round"></path><path d="M98.69,325.36a12.42,12.42,0,0,0,6.36,5.91c1.69.87-.36,4.89,1.09,7.46s5.21.34,5.21.34-.33,5.86-4.88,5.79a2.1,2.1,0,0,0,1.85,1.06s-11,6.66-21.76,1.91-5.87-15-5.87-15-3.76,3.89-3,8.44c0,0-5.35-7.52,1.91-11s8.08-9,11.46-8.44S98.69,325.36,98.69,325.36Z" style="fill:#263238"></path><path d="M95.92,333.52s-1.38,5.54-.39,7.32-8.64,2.31-8.64,2.31,3.56-2.84,2.18-6.93S95.92,333.52,95.92,333.52Z" style="fill:#fff;stroke:#263238;stroke-linecap:round;stroke-linejoin:round"></path><path d="M97.75,431a41.77,41.77,0,0,1,.94,5.43c0,1.32-.13,6.86-2.77,5.28s-1.12-10.56-1.12-10.56Z" style="fill:#263238"></path><path d="M103,391.87s2.53,5.26,2.13,7.84-4.35,2.64-4.48-3.92S103,391.87,103,391.87Z" style="fill:#757575;stroke:#263238;stroke-linecap:round;stroke-linejoin:round"></path><path d="M84.86,326.05c.41-6.63,15.5-8.19,12.56,4.21S84,340.24,84.86,326.05Z" style="fill:#fff;stroke:#263238;stroke-linecap:round;stroke-linejoin:round"></path><path d="M82.66,343.65s14.63-6.37,18-5.43,2.33,21.62,0,23.93c-4.78,4.74-13.36,4.73-13.36,4.73S74.55,349.71,82.66,343.65Z" style="fill:#757575;stroke:#263238;stroke-linecap:round;stroke-linejoin:round"></path><path d="M98.69,374.2c-1.71-.53-5.67,5-5.67,5A80.73,80.73,0,0,0,91.1,402.9c1.63,3.7,4.1,1.83,7.51-1.34s5.29-15.62,7.47-24.07-5.38-15.34-5.38-15.34" style="fill:#419183;stroke:#263238;stroke-linecap:round;stroke-linejoin:round"></path><path d="M88.27,375.94s2.38,3,4.75,3.27" style="fill:#419183;stroke:#263238;stroke-linecap:round;stroke-linejoin:round"></path><path d="M93.61,324.49c-2.81-1.45-5.67,3.43-10.81,6.6s-6.72-.79-6.72-.79,2.63.52,3-.66c0,0-.32-6.52,7-9.59s10.45-1.15,11.24,0a11.8,11.8,0,0,1,2.37,5.3c.79,3.36,2.52,7.23.79,7C94.67,331.41,93.61,324.49,93.61,324.49Z" style="fill:#263238"></path><path d="M100.7,338.22c1.52.07,10.65,14.28,10.65,14.28l-1.71,3.37L100.7,347s-2.46-2.53-2-4.47A17.81,17.81,0,0,1,100.7,338.22Z" style="fill:#fff;stroke:#263238;stroke-linecap:round;stroke-linejoin:round"></path><polygon points="104.75 361.8 108.86 376.74 109.14 381.5 122.89 377.71 128.33 372.39 125.57 369.89 118.47 353.34 106.21 358.12 104.75 361.8" style="fill:#263238"></polygon><path d="M108.68,358.51s-3.28-4.13-.41-6.95,5.88,4.1,5.88,4.1" style="fill:none;stroke:#263238;stroke-linecap:round;stroke-linejoin:round"></path><polygon points="108.62 360.63 115.81 374.36 117.1 378.95 129.74 372.32 133.91 365.96 130.69 364.1 120.23 349.44 109.26 356.73 108.62 360.63" style="fill:#757575;stroke:#263238;stroke-linecap:round;stroke-linejoin:round"></polygon><path d="M111.76,356.58s-4.09-3.34-1.88-6.7,6.62,2.75,6.62,2.75" style="fill:none;stroke:#263238;stroke-linecap:round;stroke-linejoin:round"></path><polyline points="133.91 365.96 120.45 372.03 119.4 375.09" style="fill:none;stroke:#263238;stroke-linecap:round;stroke-linejoin:round"></polyline><polyline points="120.45 372.03 118.21 369.98 111.35 359.17" style="fill:none;stroke:#263238;stroke-linecap:round;stroke-linejoin:round"></polyline><polygon points="81.74 369.76 78.58 384.93 78.6 389.7 64.63 386.78 58.87 381.81 61.47 379.14 67.51 362.18 80.05 366.18 81.74 369.76" style="fill:#757575;stroke:#263238;stroke-linecap:round;stroke-linejoin:round"></polygon><path d="M77.61,366.72s3-4.33,0-7S72,364.22,72,364.22" style="fill:none;stroke:#263238;stroke-linecap:round;stroke-linejoin:round"></path><polyline points="58.87 381.81 73.58 384.54 75.82 387.65" style="fill:none;stroke:#263238;stroke-linecap:round;stroke-linejoin:round"></polyline><polyline points="73.58 384.54 74.9 381.93 78.94 369.53" style="fill:none;stroke:#263238;stroke-linecap:round;stroke-linejoin:round"></polyline><polygon points="77.8 368.83 71.49 382.99 70.49 387.65 57.46 381.83 52.89 375.74 56 373.69 65.52 358.4 76.92 364.98 77.8 368.83" style="fill:#419183;stroke:#263238;stroke-linecap:round;stroke-linejoin:round"></polygon><path d="M74.42,365s3.87-3.59,1.45-6.81-6.43,3.17-6.43,3.17" style="fill:none;stroke:#263238;stroke-linecap:round;stroke-linejoin:round"></path><polyline points="52.89 375.74 66.07 381 68.18 384.54" style="fill:none;stroke:#263238;stroke-linecap:round;stroke-linejoin:round"></polyline><polyline points="66.07 381 68.18 378.5 74.24 367.69" style="fill:none;stroke:#263238;stroke-linecap:round;stroke-linejoin:round"></polyline><polygon points="65.22 359.2 51.61 366.61 47.98 369.71 41.17 357.17 41.23 349.56 44.95 349.82 61.79 343.45 66.86 355.6 65.22 359.2" style="fill:#bfbfbf;stroke:#263238;stroke-linecap:round;stroke-linejoin:round"></polygon><path d="M64.86,354.09s5.26-.5,5.29-4.53-7-1.39-7-1.39" style="fill:none;stroke:#263238;stroke-linecap:round;stroke-linejoin:round"></path><polyline points="41.23 349.56 48.51 361.74 48.03 365.84" style="fill:none;stroke:#263238;stroke-linecap:round;stroke-linejoin:round"></polyline><polyline points="48.51 361.74 51.71 361.03 63.09 356.13" style="fill:none;stroke:#263238;stroke-linecap:round;stroke-linejoin:round"></polyline><path d="M76.58,358.76l-5.61-6-3.07.62s3.31,9.44,6.92,10.54S76.58,358.76,76.58,358.76Z" style="fill:#fff;stroke:#263238;stroke-linecap:round;stroke-linejoin:round"></path><path d="M109.39,350.92c.55-1,4.3-7.77,4.3-7.77l2.85.36s-2.85,14.14-6.9,12.36A4.7,4.7,0,0,1,109.39,350.92Z" style="fill:#fff;stroke:#263238;stroke-linecap:round;stroke-linejoin:round"></path><path d="M68.69,354.7c-1.28-1.53-2.77-5.22-2.38-5.83S69,345.69,69.24,346l1.06,1.35s.47-1.45,1-.66,1.16,6.23-.23,6.93" style="fill:#fff;stroke:#263238;stroke-linecap:round;stroke-linejoin:round"></path><path d="M70.3,347.33a8.78,8.78,0,0,1,.77,3.38c-.15,1.3-2.06,2.56-3.17,2.83" style="fill:none;stroke:#263238;stroke-linecap:round;stroke-linejoin:round"></path><polygon points="119.38 349.94 132.99 357.35 136.61 360.45 143.42 347.92 143.36 340.31 139.65 340.56 122.8 334.2 117.74 346.35 119.38 349.94" style="fill:#419183;stroke:#263238;stroke-linecap:round;stroke-linejoin:round"></polygon><path d="M119.73,344.83s-5.25-.5-5.29-4.52,7-1.39,7-1.39" style="fill:none;stroke:#263238;stroke-linecap:round;stroke-linejoin:round"></path><polyline points="143.36 340.31 136.09 352.49 136.56 356.58" style="fill:none;stroke:#263238;stroke-linecap:round;stroke-linejoin:round"></polyline><polyline points="136.09 352.49 132.89 351.78 121.51 346.87" style="fill:none;stroke:#263238;stroke-linecap:round;stroke-linejoin:round"></polyline><path d="M115.9,345.44c1.29-1.52,2.78-5.22,2.38-5.83s-2.67-3.18-2.92-2.88-1.07,1.34-1.07,1.34-.46-1.44-1-.65-1.15,6.22.23,6.92" style="fill:#fff;stroke:#263238;stroke-linecap:round;stroke-linejoin:round"></path><path d="M114.29,338.07a8.65,8.65,0,0,0-.76,3.38c.15,1.31,2,2.56,3.17,2.84" style="fill:none;stroke:#263238;stroke-linecap:round;stroke-linejoin:round"></path></g><g id="freepik--character-3--inject-5"><path d="M379.35,431.19a14.13,14.13,0,0,0-1.58,5.7c0,2.77-.89,4.65.84,4.89s4.5.46,4.5-.33v-2s1.38-7.44,0-8.27S379.35,431.19,379.35,431.19Z" style="fill:#fff;stroke:#263238;stroke-linecap:round;stroke-linejoin:round"></path><path d="M403.36,369.77s1.18,25.45-1.06,32.7-17.67,28.35-17.67,28.35-.79,3.17-2.9,2.9-3.57-3.16-2.77-4.61,3-5.94,3-5.94,8.44-18.95,9.76-21.54-4.88-14.58-4.88-14.58l-3.14-8.3-.13-8.32Z" style="fill:#999;stroke:#263238;stroke-linecap:round;stroke-linejoin:round"></path><path d="M398.76,410.91l-1.6,5.06a64.87,64.87,0,0,0,2.24,6.14c1,2.08,4.34,3.25,4.84,1.69s-.75-8.17-.75-8.17,1.82-3.78.53-4.29S398.76,410.91,398.76,410.91Z" style="fill:#fff;stroke:#263238;stroke-linecap:round;stroke-linejoin:round"></path><path d="M385.68,317.12c-4.22,1-8,2.2-6.86,11.44.36,2.83,1.39,4.59,2.74,5.61h0a3.88,3.88,0,0,1,0,3.82c-1.15,2,7.95,1.18,7.95,1.18s-1.46-2.63,0-4.68h0a9.38,9.38,0,0,0,3.2-2C395.06,329.92,389.9,316.1,385.68,317.12Z" style="fill:#fff;stroke:#263238;stroke-linecap:round;stroke-linejoin:round"></path><path d="M378.61,318.91s-.45-2.68-2.23-3.47,4.75.39,4.75,0a30.1,30.1,0,0,0-1-3.15s3.56-.37,4.55,2.23,2-.95,2.77-.71,1.06,3.26,1.06,3.26l1.84-1.48s3.18,6.29,1.59,8.61c0,0-3-3.27-6-3.44a6.37,6.37,0,0,0-4.49,1.12l.22,5.67s-.55-2.64-1.88-.94c-.75,1,.54,5.1.54,5.1s-3.19-.58-4.26-4.87S378.61,318.91,378.61,318.91Z" style="fill:#263238"></path><path d="M374.08,340.13c1.32-2.8,16.61-4,22.94-3.33s8.84,40.35,8.84,40.35-1.26-3-8.7-2.39A38.82,38.82,0,0,0,383,379l-1.58-13.28s-8-17.13-8.44-19.07A9.34,9.34,0,0,1,374.08,340.13Z" style="fill:#263238"></path><path d="M383.55,333.93s3.27,1.34,6.09.25,1-2.08,1-2.08S384.79,334.63,383.55,333.93Z" style="fill:#263238"></path><polyline points="389.27 290.63 404.51 288.32 425.13 292.5 425.13 295.99 405.61 297.2 389.26 295.91 389.27 291.44" style="fill:#999;stroke:#263238;stroke-linecap:round;stroke-linejoin:round"></polyline><polygon points="394.27 295.73 407.84 296.57 424.58 303.92 422.59 312.06 405.87 309.41 391.77 305.98 394.27 295.73" style="fill:#999;stroke:#263238;stroke-linecap:round;stroke-linejoin:round"></polygon><line x1="407.84" y1="296.57" x2="406.56" y2="301.84" style="fill:#757575;stroke:#263238;stroke-linecap:round;stroke-linejoin:round"></line><polyline points="389.26 295.91 405.45 292.76 422.13 294.61" style="fill:#999;stroke:#263238;stroke-linecap:round;stroke-linejoin:round"></polyline><polyline points="391.77 305.98 405.7 303.89 420.75 309.66" style="fill:#999;stroke:#263238;stroke-linecap:round;stroke-linejoin:round"></polyline><polygon points="389.36 315.26 399.38 316.26 424.91 316.26 424.91 310.59 402.55 305.62 389.36 311.41 389.36 315.26" style="fill:#419183;stroke:#263238;stroke-linecap:round;stroke-linejoin:round"></polygon><polygon points="391.71 314.17 393.85 325.99 423.38 325.99 423.38 313.23 403.87 310.59 391.71 314.17" style="fill:#419183;stroke:#263238;stroke-linecap:round;stroke-linejoin:round"></polygon><polyline points="403.87 310.59 404.73 322.85 420.75 324.91" style="fill:#419183;stroke:#263238;stroke-linecap:round;stroke-linejoin:round"></polyline><line x1="402.75" y1="308.65" x2="402.75" y2="306.62" style="fill:#419183;stroke:#263238;stroke-linecap:round;stroke-linejoin:round"></line><polyline points="387.52 325.99 402.75 323.65 423.38 327.78 423.38 331.27 403.87 332.53 387.52 331.27 387.52 326.79" style="fill:#999;stroke:#263238;stroke-linecap:round;stroke-linejoin:round"></polyline><polygon points="389.36 330.48 402.75 328.09 420.75 331.27 420.75 339.65 403.87 341.03 389.36 341.03 389.36 330.48" style="fill:#999;stroke:#263238;stroke-linecap:round;stroke-linejoin:round"></polygon><polygon points="393.85 344.4 393.25 338.72 403.87 335.89 426.48 340.14 426.48 344.4 409.87 346.13 393.85 344.4" style="fill:#757575;stroke:#263238;stroke-linecap:round;stroke-linejoin:round"></polygon><path d="M396.62,342.81l7.25-1.78,21,3.53v10.23s-19.92.68-21,.68-8.64-.68-8.64-.68Z" style="fill:#757575;stroke:#263238;stroke-linecap:round;stroke-linejoin:round"></path><polyline points="403.87 341.03 403.87 352.37 422.13 353.08" style="fill:#757575;stroke:#263238;stroke-linecap:round;stroke-linejoin:round"></polyline><line x1="402.75" y1="328.09" x2="402.75" y2="333.52" style="fill:#757575;stroke:#263238;stroke-linecap:round;stroke-linejoin:round"></line><polygon points="389.98 361.29 400 362.29 425.52 362.29 425.52 356.62 403.16 351.65 389.98 357.44 389.98 361.29" style="fill:#419183;stroke:#263238;stroke-linecap:round;stroke-linejoin:round"></polygon><polygon points="392.32 360.2 394.46 372.02 424 372.02 424 359.26 404.48 356.62 392.32 360.2" style="fill:#419183;stroke:#263238;stroke-linecap:round;stroke-linejoin:round"></polygon><polyline points="404.48 356.62 405.34 368.88 421.36 370.94" style="fill:#419183;stroke:#263238;stroke-linecap:round;stroke-linejoin:round"></polyline><line x1="403.36" y1="354.68" x2="403.36" y2="352.65" style="fill:#419183;stroke:#263238;stroke-linecap:round;stroke-linejoin:round"></line><path d="M375.88,350.45s.76-7.5,5.58-7.41l6.06,11.43,14-9s5.22-1.78,6.66-1.18a2.74,2.74,0,0,1,1.7,1.81h-1.7l2.83,2.12s-.9,2.2-2.83,2a25.25,25.25,0,0,0-4.81.2s-14,10.23-15.84,11.84S375.88,350.45,375.88,350.45Z" style="fill:#fff;stroke:#263238;stroke-linecap:round;stroke-linejoin:round"></path><path d="M424,366.08s2.34-.8,2.48,0,.11,8-1,7.74-3.73-.24-3.39-1S424,366.08,424,366.08Z" style="fill:#fff;stroke:#263238;stroke-linecap:round;stroke-linejoin:round"></path><path d="M383.73,378.75s-.93,10.36,2.22,13.81,15.42-2.22,15.42-2.22l-2.61,20.57s2.75,2.64,5.6,1.58c1.53-.56,12.71-32.26,10.6-36.36s-23.75,2.32-23.75,2.32" style="fill:#999;stroke:#263238;stroke-linecap:round;stroke-linejoin:round"></path><path d="M401.37,390.34s-1.89-3-.55-5.28" style="fill:none;stroke:#263238;stroke-linecap:round;stroke-linejoin:round"></path><path d="M397.16,387.7a5.48,5.48,0,0,0,3.18,3.09" style="fill:none;stroke:#263238;stroke-linecap:round;stroke-linejoin:round"></path></g><g id="freepik--character-2--inject-5"><path d="M306.5,162.61s-3.95,6.06-8.7,2.63-6.33-7.11-12.13-6.06c0,0,4.22-1.84,8.17,0s9.64-5.28,9.64-5.28l-5.15-3.27s-3.16,6.17-6.07,4.06-5.8-7.07-11.07-4.06c-1,.58-1.74.19-2.29-.84,1.94-3.6,5.57-11.36,4.4-17.24a19.65,19.65,0,0,0-1.6-4.9c2.47,2.25,5.72,4.37,8.58,3.48l-3.56-4.66s-4.9,1.28-13.21-9.49c-2.86-3.7-9.34-11.6-23.58-6.16-10,3.81-21.41,8-23.43,15.65s.25,16.43-8.53,19.16-13.8-.39-14.85,5,1.95,6,1.95,6l3.85-1s-4.22-3-2.37-3.83,7.17-1.16,7.17-1.16-3.48,2.48-3.22,3.54,1.85,6.59-2.11,6.85-12.59-2.37-15,2.11c0,0,4.45.79,5.25,2.38,0,0,1.53-.79,6.43,0s11.87,1.05,11.68-4.75c0,0,4,7.38-8.88,6.86,0,0,3.39,5.27,4.33,7.38s29,8.44,37.12,8.44S278.71,174,279.55,174h4l7.88-2.38s-.32-4.43-10.76-5.44l-1.13-.1c-11.55-.79,10.34-1.84,15.35,2.64s14.22,1.06,14.22,1.06Zm-37-36.14s4.56-.44,8.26,6.38c2,3.75,1.11,8.76-.13,12.51C276.39,139.05,275.32,129.26,269.49,126.47Z" style="fill:#263238"></path><path d="M261.14,145.63s-8.33,18.29,5.07,20.14c0,0-9.79,7-15.48,7s-14.38-7-14.38-7,6.24-1.57,6.22-6.59-2.79-11.8-2.79-11.8Z" style="fill:#fff;stroke:#263238;stroke-linecap:round;stroke-linejoin:round"></path><path d="M232.74,134.37s-2-2.06-3-1.39a4.29,4.29,0,0,0-1.62,4.35c.54,1.76,2.89,4.81,3.07,6.59s1.39,3.79,2.72,2.61S232.74,134.37,232.74,134.37Z" style="fill:#fff;stroke:#263238;stroke-linecap:round;stroke-linejoin:round"></path><path d="M268.73,134.37s2-2.06,3-1.39a4.29,4.29,0,0,1,1.62,4.35c-.54,1.76-2.89,4.81-3.07,6.59s-1.39,3.79-2.72,2.61S268.73,134.37,268.73,134.37Z" style="fill:#fff;stroke:#263238;stroke-linecap:round;stroke-linejoin:round"></path><path d="M251.16,108.1c-25.4,0-18.53,30.71-13.85,41.57,1.64,3.82,9.92,6.94,14,6.94,3.83,0,11.3-2.81,12.85-6.39C268.92,139.3,275.38,108.1,251.16,108.1Z" style="fill:#fff;stroke:#263238;stroke-linecap:round;stroke-linejoin:round"></path><path d="M246.86,127s-6.62-2-8.66,2" style="fill:none;stroke:#263238;stroke-linecap:round;stroke-linejoin:round"></path><ellipse cx="242.84" cy="132.55" rx="0.89" ry="1.41" style="fill:#263238"></ellipse><path d="M254.61,127s6.62-2,8.66,2" style="fill:none;stroke:#263238;stroke-linecap:round;stroke-linejoin:round"></path><path d="M259.51,132.55c0,.78-.39,1.41-.88,1.41s-.89-.63-.89-1.41.4-1.41.89-1.41S259.51,131.77,259.51,132.55Z" style="fill:#263238"></path><path d="M252.4,131.47c-.87,1.47,1.86,5.92.87,6.66a4.92,4.92,0,0,1-2.54.74" style="fill:#fff;stroke:#263238;stroke-linecap:round;stroke-linejoin:round"></path><path d="M257.24,141.89a19.57,19.57,0,0,1-11.8,0s-.06,4.08,3.29,5C253,148.15,256.75,147,257.24,141.89Z" style="fill:#fff;stroke:#263238;stroke-linecap:round;stroke-linejoin:round"></path><path d="M250.73,106.59c-26.74,0-17.48,31-17.48,31,0-4.55,2.36-9.1,1.77-11.15s1.13-7.69,1.13-7.69a28,28,0,0,1,14.58-4.51,25.8,25.8,0,0,1,14.18,4.51s1.73,5.65,1.13,7.69,1.77,6.6,1.78,11.15C267.82,137.62,277.48,106.59,250.73,106.59Z" style="fill:#263238"></path><path d="M266.21,114.87c-1.26-2.18-4.82-3.67-7.58-3.71,0,0-.4-.24-.94-.52-.85-1.18-2.48-2.31-5.58-2.53-7-.48-6.4-2.87-6.67-3.53s1.42-2.24,1.42-2.24h-2.2c-3,0-2.7,4.25-2.7,4.25-2.17-1.55-6.53-2.27-6.53-2.27-2.11,0-3.7,2.27-3.7,2.27,2.89.3,7.52,3,7.52,3a23.16,23.16,0,0,0-10.42,0c-3,3.57-2.24,5.28-2.24,5.28a45.85,45.85,0,0,1,8.18-1.19A25.78,25.78,0,0,0,218,129s.53,6,.92,4.93a18.63,18.63,0,0,1,5.05-9.15,45.89,45.89,0,0,0-4.25,17.81l1.84,3.58s3.34-22.07,14.06-27.77a15.08,15.08,0,0,0-2.62,5.84l4.25-1c1-4.46,4.74-6.22,8-6.93,1.79-.21,3.45-.39,4.43-.49l.82,0c-1.62,1.4-6.13,1.38-6.13,1.38L242.84,119c4.74,1.16,9.34-.86,12.34-2.72a12.77,12.77,0,0,1-1.69,2.38l2.64.69a5.71,5.71,0,0,0,2.17-2.76,12.11,12.11,0,0,1,7.91,7.33C268.66,131,268.69,119.18,266.21,114.87Z" style="fill:#263238"></path><path d="M195.7,172.73c2.8-4.55,15.7-2,17.82-5.56s8.72-4.43,11.49-4.43,26.33,4.55,26.33,4.55,24-4.55,26.41-4.55,10.36,6.92,10.36,6.92,14.64,1.79,16.42,3.07-1.59,8.4-5.15,12.56S281,194.74,281,194.74l-4.38,48.56H228.52l-7.5-50S187.13,186.68,195.7,172.73Z" style="fill:#757575;stroke:#263238;stroke-linecap:round;stroke-linejoin:round"></path><path d="M200.79,182.44a6.16,6.16,0,0,1-4.09-6c0-4.73,2.84.53,6.76.53s8.51-.25,9.48.63,5.19,7.41,6.08,8.6,4.32,2.77,3.92,3.83S206.15,190,200.79,182.44Z" style="fill:#263238"></path><path d="M217.3,186.3s-4-8.31-6.87-8.31h-8s-6.72,11.47-8,13.06-7.27,2.76-9.23,4.94-14.06,31.39-14.06,31.39l14.06,2.76s18.82-19.31,18.82-22.87S217.3,186.3,217.3,186.3Z" style="fill:#fff;stroke:#263238;stroke-linecap:round;stroke-linejoin:round"></path><path d="M278.44,191.3c1.64,1.94,11.47-1.5,13.58-3.34s11.55-10.51,11.55-13.47-3.83,2.79-7.56,2.79-8.36-.53-9.63.74S277.25,189.9,278.44,191.3Z" style="fill:#263238"></path><path d="M282.17,186.3s4-8.31,6.87-8.31h8s6.72,11.47,8,13.06,7.26,2.76,9.22,4.94,14.06,31.39,14.06,31.39l-14.06,2.76s-18.81-19.31-18.81-22.87S282.17,186.3,282.17,186.3Z" style="fill:#fff;stroke:#263238;stroke-linecap:round;stroke-linejoin:round"></path><path d="M233.81,185.06c.9-.23,1.8-.44,2.71-.63l.12,1.67c-.9.19-1.79.4-2.68.63.15,1.71.33,3.42.52,5.13q-1,.27-2,.57c-.52-3.88-.91-7.8-1.18-11.73q2.82-.76,5.69-1.31c0,.51.05,1,.07,1.53-1.18.22-2.35.48-3.52.76C233.63,182.81,233.72,183.94,233.81,185.06Z" style="fill:#419183"></path><path d="M243,190.19a3.74,3.74,0,0,1-.26-1.55l-.09-1.94c0-1.11-.48-1.48-1.44-1.34l-.73.11c.09,1.68.19,3.35.3,5-.68.11-1.35.23-2,.36q-.47-5.81-.7-11.66c1.09-.19,2.18-.35,3.28-.49,2.26-.28,3.25.47,3.27,2.13,0,.28,0,.57,0,.86a2.43,2.43,0,0,1-1.34,2.43v0c1.08.27,1.44,1.12,1.48,2.37,0,.64,0,1.28.05,1.91a3.64,3.64,0,0,0,.28,1.53C244.39,190,243.7,190.1,243,190.19Zm-2.73-9.81c0,1.14.08,2.28.13,3.42l.84-.12c.79-.11,1.26-.46,1.23-1.36l0-1.1c0-.78-.36-1.08-1.13-1Z" style="fill:#419183"></path><path d="M246,178.27c.73,0,1.46-.08,2.19-.1,0,3.87,0,7.73,0,11.6-.68,0-1.36.06-2,.11Q246.06,184.08,246,178.27Z" style="fill:#419183"></path><path d="M249.81,178.14c1.16,0,2.31,0,3.47.05,2.2.09,3.24,1.12,3.16,2.84-.07,2-.16,3.91-.25,5.86a2.72,2.72,0,0,1-3.2,2.89c-1.08,0-2.16-.06-3.24,0C249.76,185.87,249.78,182,249.81,178.14Zm2.17,1.52-.15,8.27,1.17,0c.66,0,1.07-.27,1.1-1.15.06-2,.13-4,.18-6,0-.77-.38-1.07-1.07-1.1Z" style="fill:#419183"></path><path d="M263.89,191.22q-1-.22-2-.42c0-.78-.09-1.57-.14-2.36-.84-.15-1.69-.28-2.54-.4l-.51,2.24c-.63-.08-1.25-.16-1.87-.22q1.26-5.7,2.77-11.35c1.07.13,2.13.29,3.19.47Q263.62,185.21,263.89,191.22Zm-4.34-4.8c.67.09,1.34.2,2,.31q-.22-3-.6-5.93h0C260.45,182.67,260,184.54,259.55,186.42Z" style="fill:#419183"></path><path d="M266.3,187.56q-.81-4-2-8.1c.76.15,1.51.31,2.26.48q.66,2.7,1.14,5.4h0c.68-1.54,1.37-3.07,2.09-4.59.68.19,1.35.38,2,.59-1.21,2.23-2.37,4.49-3.49,6.76-.17,1.38-.35,2.76-.55,4.13-.66-.19-1.33-.38-2-.55C266,190.31,266.14,188.94,266.3,187.56Z" style="fill:#419183"></path><path d="M245.74,170.8l1.21-.07c0,1.71,0,3.41,0,5.11l-1.2.07C245.73,174.21,245.73,172.5,245.74,170.8Z" style="fill:#419183"></path><path d="M247.48,170.71c1.25,0,2.5-.06,3.75-.05,0,.23,0,.47,0,.7-.42,0-.85,0-1.27,0,0,1.47,0,2.93,0,4.4l-1.19,0,0-4.41-1.26,0Z" style="fill:#419183"></path><path d="M251.75,171.41c0-.25,0-.5,0-.74l1.17,0c0,.22,0,.44,0,.66-.19.25-.37.51-.55.77h-.49l.33-.7Z" style="fill:#419183"></path><path d="M255.39,170.75c1.18.08,1.77.58,1.74,1.37v.15l-1.14-.08V172c0-.35-.2-.5-.59-.53s-.6.1-.61.45.23.65,1,1.16c1,.66,1.29,1.12,1.28,1.71,0,.85-.66,1.28-1.83,1.21s-1.77-.59-1.75-1.43v-.32l1.13.05c0,.12,0,.25,0,.37,0,.38.23.53.61.55s.62-.09.63-.47-.21-.68-1-1.19c-1-.65-1.31-1.07-1.29-1.64C253.59,171.11,254.21,170.68,255.39,170.75Z" style="fill:#419183"></path><path d="M221,193.29a3.45,3.45,0,0,0,4-2.07c1.26-2.81-3.16-11.24-2.6-12.56s2.81-5.62,1.48-10.69" style="fill:none;stroke:#263238;stroke-linecap:round;stroke-linejoin:round"></path><path d="M281,194.74c-3.69-.53-4.48-1.51-4.75-2.86s1.45-13.36.79-13.89-3.19-8.44-2.84-10" style="fill:none;stroke:#263238;stroke-linecap:round;stroke-linejoin:round"></path><path d="M232.8,210.83c1.41-.93,19.85-12,28.76-14" style="fill:none;stroke:#263238;stroke-linecap:round;stroke-linejoin:round"></path><path d="M242,168s13.25.92,18.38,0" style="fill:none;stroke:#263238;stroke-linecap:round;stroke-linejoin:round"></path><path d="M351.08,336.23c-5.53,2-10.67,24.53-11.25,37.81s-13.66,8.08-23.72,3.73-33.06,11.48-56.79,14.69S229.64,373.82,212.07,374s-56.42,2.15-61.55-5.76.79-19-.79-30.86-17-2.77-24.54-14.73c-6.92-11-1.08-32.92,5.16-31.9a3.38,3.38,0,0,1,1.58.76c6.71,5.57,27.68-5.95,26.51-15s53.63-34.64,53.63-34.64S288.48,243,289.76,249s26.12,15.27,37.55,16.27,13.1,31.44,15.2,34c1.75,2.16,14.21,8,19.24,15.55h0a12.09,12.09,0,0,1,2,4.76C365.33,329.45,356.63,334.26,351.08,336.23Z" style="fill:#999;stroke:#263238;stroke-linecap:round;stroke-linejoin:round"></path><path d="M351.08,336.23c-5.53,2-10.67,24.53-11.25,37.81s-13.66,8.08-23.72,3.73-33.06,11.48-56.79,14.69S229.64,373.82,212.07,374s-56.42,2.15-61.55-5.76.79-19-.79-30.86-17-2.77-24.54-14.73c-6.92-11-1.08-32.92,5.16-31.9,2.62,3.58,13,18.32,17.75,24,5.14,6.06,31.75-13.65,37.17-9.37s57,26.56,68.47,24.36,33.35-12.51,44.28-9.34,8.34,27.7,29.7,15.83,25.35-28.19,34-21.41h0a12.09,12.09,0,0,1,2,4.76C365.33,329.45,356.63,334.26,351.08,336.23Z" style="fill:#263238"></path><path d="M248.11,385.24,250,421.37h8.93l7.87-36.09s-5.92-2.83-9.13-2.83C256.09,382.45,248.11,385.24,248.11,385.24Z" style="fill:#fff;stroke:#263238;stroke-linecap:round;stroke-linejoin:round"></path><path d="M252.39,440.21c-3.83-.17-7-3.57-7.13-4.73a37.2,37.2,0,0,0-2-8.88c-1.73-5.51,3.91-11.1,3.91-11.1a36.11,36.11,0,0,0,.79-6c0-2.15,6.09-5.05,9.61-3.83s4.13,3.46,4.82,4.24,0,6.8,0,6.8a13.28,13.28,0,0,1,3.14,7.93c0,4.44-1.23,5.06-3.39,8.15S258.28,440.47,252.39,440.21Z" style="fill:#419183;stroke:#263238;stroke-linecap:round;stroke-linejoin:round"></path><path d="M245.81,435.3c.61-8.17-4.59-11,1.53-14s14.46-2.94,17,2-5.72,14.18-5.72,14.18a10.69,10.69,0,0,1-6.61,1.81C248.26,439.06,245.81,435.3,245.81,435.3Z" style="fill:#263238"></path><path d="M247.19,415.5s4.23-2.83,8.27-1.76,5.63,1.14,7,3" style="fill:none;stroke:#263238;stroke-linecap:round;stroke-linejoin:round"></path><path d="M245.58,419.94a16.44,16.44,0,0,1,9.88-2.6c5.34.53,7.41,2,7.41,2" style="fill:none;stroke:#263238;stroke-linecap:round;stroke-linejoin:round"></path><path d="M251,411.68s.77-4.09-.6-4.8" style="fill:none;stroke:#263238;stroke-linecap:round;stroke-linejoin:round"></path><path d="M259.2,412.6s.1-5.69,1.75-4.73" style="fill:none;stroke:#263238;stroke-linecap:round;stroke-linejoin:round"></path><path d="M249.94,409.28a11,11,0,0,1,5.52-1.52,7.25,7.25,0,0,1,5.19,2.42" style="fill:none;stroke:#263238;stroke-linecap:round;stroke-linejoin:round"></path><path d="M249.48,410.91a27.44,27.44,0,0,1,5.82-.73,10.18,10.18,0,0,1,5.35,1.8" style="fill:none;stroke:#263238;stroke-linecap:round;stroke-linejoin:round"></path><path d="M246.42,425.36s11.32-.14,15.61.7" style="fill:none;stroke:#fff;stroke-linecap:round;stroke-linejoin:round;opacity:0.2"></path><path d="M246.88,429.36s9.79-.17,14.07.75" style="fill:none;stroke:#fff;stroke-linecap:round;stroke-linejoin:round;opacity:0.2"></path><path d="M247.65,432.48s10.06,1,11,.92" style="fill:none;stroke:#fff;stroke-linecap:round;stroke-linejoin:round;opacity:0.2"></path><path d="M248.49,435.93s5.23.68,7,.68" style="fill:none;stroke:#fff;stroke-linecap:round;stroke-linejoin:round;opacity:0.2"></path><path d="M226,368.59l9.52,27s2.1,5.85,1.51,9.86-.14,12.15,4.56,11.53,2.38-9.31,3.85-12.82-.29-8.44-1.51-9.86-.35-13.47-1.84-19.59S226,368.59,226,368.59Z" style="fill:#263238"></path><polygon points="308.19 368 320.08 265.67 179.91 267.59 180.75 366.4 308.19 368" style="fill:#419183"></polygon><g style="clip-path:url(#freepik--clip-path--inject-5)"><polygon points="308.19 368 320.08 265.67 179.91 267.59 180.75 366.4 308.19 368" style="fill-opacity:0.7000000000000001;opacity:0.5"></polygon><polygon points="180.75 332.4 197.74 335.82 197.74 356.78 296.8 356.78 300.15 338.09 310.9 338.09 320.08 265.67 179.91 267.59 180.75 332.4" style="fill-opacity:0.7000000000000001;opacity:0.4"></polygon></g><polygon points="308.19 368 320.08 265.67 179.91 267.59 180.75 366.4 308.19 368" style="fill:none;stroke:#263238;stroke-linecap:round;stroke-linejoin:round"></polygon><path d="M193.83,215.08s-1-10.78,11-13.53,12.37,7.55,12.37,7.55" style="fill:none;stroke:#263238;stroke-linecap:round;stroke-linejoin:round;stroke-width:2px"></path><polygon points="166.75 314.51 172.41 292.81 169.99 215.58 234.77 202.34 263.96 271.21 278.17 289.14 268.28 306.29 191.06 322.69 166.75 314.51" style="fill:#419183"></polygon><g style="clip-path:url(#freepik--clip-path-2--inject-5)"><polygon points="278.17 289.14 268.28 306.29 191.05 322.69 166.75 314.51 166.86 314.1 171.44 296.51 172.4 292.81 172.32 290.19 169.99 215.58 234.77 202.34 241.36 217.89 263.96 271.21 278.17 289.14" style="fill-opacity:0.7000000000000001;opacity:0.30000000000000004"></polygon><polygon points="209.24 223.21 212.61 221.72 215.16 224.39 218.79 223.78 220.6 227 224.27 227.32 225.22 230.88 228.7 232.1 228.73 235.79 231.8 237.84 230.91 241.42 233.37 244.17 231.63 247.41 233.32 250.69 230.82 253.4 231.66 256.99 228.56 258.99 228.47 262.68 224.98 263.85 223.97 267.39 220.3 267.66 218.44 270.85 214.82 270.19 212.23 272.82 208.88 271.28 205.72 273.18 202.86 270.85 199.32 271.91 197.13 268.94 193.45 269.09 192.06 265.67 188.46 264.89 187.96 261.24 184.66 259.59 185.09 255.93 182.31 253.51 183.63 250.07 181.54 247.04 183.68 244.04 182.4 240.58 185.22 238.2 184.85 234.53 188.17 232.93 188.72 229.29 192.33 228.56 193.77 225.17 197.46 225.37 199.69 222.44 203.21 223.55 206.11 221.27 209.24 223.21" style="fill:#263238"></polygon><path d="M196.91,246.1c-.29-1.37-.84-1.64-1.6-1.48s-1.14.67-.92,1.75l.21,1-2.25.47-.17-.82c-.51-2.42.41-4.06,2.74-4.55s3.84.64,4.35,3.06l.08.39c.34,1.62,0,2.72-1,3.44v0c1.3.27,2,1.28,2.33,2.81l.25,1.19c.51,2.42-.41,4.06-2.75,4.55s-3.84-.64-4.34-3.06l-.27-1.26,2.25-.47.3,1.41c.22,1.08.79,1.39,1.54,1.23s1.16-.62.88-2l-.25-1.18c-.3-1.41-.88-1.83-2-1.6l-.8.17-.46-2.17.93-.19c.89-.19,1.35-.69,1.09-1.9Z" style="fill:#fff"></path><path d="M200.68,245.22c-.51-2.43.47-4.08,2.81-4.57s3.9.63,4.41,3l1.65,7.87c.51,2.42-.48,4.07-2.81,4.56s-3.91-.62-4.41-3Zm4.06,7.52c.22,1.08.78,1.39,1.54,1.23s1.15-.67.92-1.75l-1.71-8.17c-.23-1.08-.79-1.4-1.55-1.24s-1.14.67-.92,1.75Z" style="fill:#fff"></path><path d="M209,242.09a2.34,2.34,0,1,1,4.58-1l1,5a2.34,2.34,0,1,1-4.58,1Zm2.58,4.76c.14.67.48.89,1,.79s.72-.45.58-1.12l-1.09-5.19c-.14-.67-.5-.88-1-.78s-.72.44-.58,1.11ZM216.8,238l1.41-.3-2.8,16.39-1.4.3Zm.89,8a2.35,2.35,0,1,1,4.59-1l1,5a2.35,2.35,0,1,1-4.59,1Zm2.58,4.76c.14.67.48.9,1,.79s.72-.44.58-1.11l-1.09-5.19c-.14-.67-.5-.89-1-.79s-.72.44-.58,1.11Z" style="fill:#fff"></path><polygon points="278.17 289.14 268.28 306.29 191.05 322.69 166.75 314.51 166.86 314.1 188.11 309.65 171.44 296.51 172.4 292.81 172.32 290.19 213.19 270.96 241.36 217.89 263.96 271.21 278.17 289.14" style="fill-opacity:0.7000000000000001;opacity:0.2"></polygon></g><polygon points="166.75 314.51 172.41 292.81 169.99 215.58 234.77 202.34 263.96 271.21 278.17 289.14 268.28 306.29 191.06 322.69 166.75 314.51" style="fill:none;stroke:#263238;stroke-linecap:round;stroke-linejoin:round"></polygon><line x1="166.75" y1="314.51" x2="273.8" y2="290.18" style="fill:#419183;stroke:#263238;stroke-linecap:round;stroke-linejoin:round"></line><path d="M190.2,213.85s-6.95-15.11,4.54-19.82,18.12,4,17.87,14.8" style="fill:none;stroke:#263238;stroke-linecap:round;stroke-linejoin:round;stroke-width:2px"></path><polyline points="176.28 314.31 197.28 314.9 191.51 320.16" style="fill:none;stroke:#263238;stroke-linecap:round;stroke-linejoin:round"></polyline><polyline points="201.85 314.07 258.82 302.45 269.33 293.71" style="fill:none;stroke:#263238;stroke-linecap:round;stroke-linejoin:round"></polyline><line x1="258.82" y1="302.46" x2="265.6" y2="304.47" style="fill:#419183;stroke:#263238;stroke-linecap:round;stroke-linejoin:round"></line><line x1="172.4" y1="292.81" x2="255.87" y2="273.52" style="fill:#419183;stroke:#263238;stroke-linecap:round;stroke-linejoin:round"></line><path d="M291.86,215.8s4.94-9.63,16.52-5.55,6.39,13,6.39,13" style="fill:none;stroke:#263238;stroke-linecap:round;stroke-linejoin:round;stroke-width:2px"></path><polygon points="215.71 285.22 232.12 269.94 271.47 203.44 333.25 226.99 320.98 300.77 323.37 323.52 305.83 332.7 231.84 305.16 215.71 285.22" style="fill:#419183"></polygon><g style="clip-path:url(#freepik--clip-path-3--inject-5)"><polygon points="324.35 280.52 320.98 300.77 323.37 323.53 305.83 332.7 231.84 305.16 215.84 285.39 215.71 285.23 215.81 285.14 216.55 284.45 232.11 269.94 239.78 256.98 271.47 203.44 331.68 226.39 333.25 226.99 324.35 280.52" style="fill-opacity:0.7000000000000001;opacity:0.2"></polygon><polygon points="302.85 232.03 306.48 232.64 307.15 236.27 310.52 237.76 310.26 241.44 313.15 243.73 311.99 247.22 314.22 250.16 312.23 253.26 313.66 256.65 310.95 259.16 311.5 262.8 308.26 264.56 307.88 268.22 304.3 269.12 303.02 272.57 299.33 272.55 297.24 275.58 293.67 274.64 290.88 277.05 287.67 275.25 284.37 276.89 281.7 274.35 278.09 275.12 276.14 272 272.45 271.85 271.34 268.34 267.81 267.28 267.6 263.6 264.45 261.69 265.16 258.07 262.58 255.44 264.17 252.12 262.32 248.93 264.69 246.11 263.7 242.56 266.69 240.41 266.61 236.73 270.05 235.39 270.88 231.8 274.55 231.37 276.25 228.1 279.9 228.58 282.36 225.84 285.78 227.22 288.85 225.18 291.82 227.36 295.3 226.15 297.63 229 301.3 228.69 302.85 232.03" style="fill:#263238"></polygon><path d="M275.21,249.68l-.53,1.33c-.4,1-.1,1.58.62,1.86s1.32.09,1.72-.94l1.25-3.16c.4-1,.11-1.6-.61-1.88s-1.33-.07-1.73,1l-.17.43-2.14-.84,3.69-8.19,6,2.35-.81,2.05-4-1.55L277,245.46l0,0a2.28,2.28,0,0,1,2.37-.28c1.66.65,2.05,2.16,1.21,4.27l-1.26,3.21c-.9,2.3-2.57,3.17-4.8,2.29s-2.85-2.64-1.94-4.94l.47-1.2Z" style="fill:#fff"></path><path d="M283.6,245.72c.91-2.31,2.64-3.15,4.86-2.27s2.92,2.67,2,5l-3,7.48c-.9,2.3-2.63,3.14-4.85,2.27s-2.92-2.67-2-5Zm-.74,8.51c-.4,1-.1,1.6.62,1.88s1.32.07,1.73-1l3.06-7.78c.4-1,.1-1.59-.62-1.88s-1.32-.07-1.73,1Z" style="fill:#fff"></path><path d="M301,248.58l1.34.53L291,261.26l-1.34-.52Zm-8.72-.89a2.35,2.35,0,1,1,4.36,1.71l-1.86,4.73a2.35,2.35,0,1,1-4.36-1.71Zm-.46,5.4c-.25.64-.09,1,.38,1.19s.85,0,1.1-.61l1.94-4.93c.25-.64.07-1-.38-1.2s-.85,0-1.1.61Zm5.52,2.67a2.35,2.35,0,1,1,4.36,1.72l-1.86,4.72a2.35,2.35,0,1,1-4.36-1.71Zm-.46,5.4c-.25.64-.09,1,.39,1.19s.84,0,1.09-.61l1.94-4.93c.25-.64.07-1-.38-1.2s-.85,0-1.1.61Z" style="fill:#fff"></path><polygon points="320.98 300.77 323.37 323.53 305.83 332.7 231.84 305.16 215.71 285.23 232.11 269.94 239.78 256.98 331.68 226.39 333.25 226.99 320.98 300.77" style="fill-opacity:0.7000000000000001;opacity:0.2"></polygon><path d="M321,300.77l2.39,22.76-17.54,9.17-74-27.54-16-19.77,0-.25c-.06-.63-.1-1-.1-1l.84.29,102.57,35.71-73.54-46.64,78.77,7Z" style="fill-opacity:0.7000000000000001;opacity:0.2"></path></g><polygon points="215.71 285.22 232.12 269.94 271.47 203.44 333.25 226.99 320.98 300.77 323.37 323.52 305.83 332.7 231.84 305.16 215.71 285.22" style="fill:none;stroke:#263238;stroke-linecap:round;stroke-linejoin:round"></polygon><line x1="215.71" y1="285.22" x2="319.12" y2="322.06" style="fill:#419183;stroke:#263238;stroke-linecap:round;stroke-linejoin:round"></line><path d="M289.46,212.81s2.23-16.48,14.45-14.29,13.13,13.12,7.16,22.07" style="fill:none;stroke:#263238;stroke-linecap:round;stroke-linejoin:round;stroke-width:2px"></path><polyline points="223.87 290.17 241.27 301.91 233.58 303.26" style="fill:none;stroke:#263238;stroke-linecap:round;stroke-linejoin:round"></polyline><polyline points="245.58 303.67 299.9 324.4 313.46 322.64" style="fill:none;stroke:#263238;stroke-linecap:round;stroke-linejoin:round"></polyline><line x1="299.9" y1="324.4" x2="304.54" y2="329.74" style="fill:none;stroke:#263238;stroke-linecap:round;stroke-linejoin:round"></line><line x1="232.11" y1="269.94" x2="312.92" y2="298.38" style="fill:#419183;stroke:#263238;stroke-linecap:round;stroke-linejoin:round"></line><path d="M222.46,271s.89-10.79,13.15-11.43,10.87,9.58,10.87,9.58" style="fill:none;stroke:#263238;stroke-linecap:round;stroke-linejoin:round;stroke-width:2px"></path><polygon points="292.68 358.52 279.96 373.69 201.07 376.45 178.55 364.18 178.75 363.75 187.88 343.79 198.89 267.31 264.99 265.51 271.56 294 281.79 338.4 292.64 358.44 292.68 358.52" style="fill:#419183"></polygon><g style="clip-path:url(#freepik--clip-path-4--inject-5)"><polygon points="292.68 358.52 279.96 373.69 201.07 376.45 178.55 364.18 178.75 363.75 292.64 358.44 292.68 358.52" style="fill-opacity:0.7000000000000001;opacity:0.2"></polygon><polygon points="239.42 283.46 243 282.6 245.03 285.68 248.71 285.75 249.91 289.23 253.46 290.21 253.75 293.89 256.95 295.72 256.32 299.35 258.96 301.92 257.45 305.28 259.37 308.43 257.06 311.31 258.14 314.83 255.19 317.05 255.36 320.73 251.96 322.14 251.2 325.75 247.55 326.27 245.93 329.58 242.26 329.17 239.86 331.97 236.41 330.67 233.39 332.78 230.38 330.67 226.93 331.96 224.53 329.16 220.87 329.56 219.24 326.25 215.6 325.72 214.85 322.11 211.44 320.7 211.62 317.01 208.67 314.8 209.75 311.27 207.46 308.39 209.38 305.25 207.87 301.89 210.51 299.32 209.89 295.69 213.09 293.86 213.38 290.19 216.94 289.21 218.14 285.73 221.83 285.67 223.85 282.59 227.44 283.45 230.17 280.97 233.43 282.7 236.69 280.98 239.42 283.46" style="fill:#263238"></polygon><path d="M225.51,299.87l.06,2.12-3.25,13.44-2.43.06,3.23-13.35-4.84.13-.06-2.21Z" style="fill:#fff"></path><path d="M227,303.55c-.06-2.47,1.21-3.92,3.59-4s3.73,1.32,3.79,3.8l.2,8c.06,2.47-1.21,3.92-3.59,4s-3.73-1.33-3.79-3.8Zm2.63,8.13c0,1.11.53,1.52,1.3,1.5s1.25-.45,1.22-1.56l-.21-8.35c0-1.1-.52-1.51-1.29-1.49s-1.25.45-1.22,1.55Z" style="fill:#fff"></path><path d="M235.8,302a2.34,2.34,0,1,1,4.68-.11l.13,5.08a2.34,2.34,0,1,1-4.68.11Zm1.68,5.15c0,.69.31,1,.81,1s.79-.31.78-1l-.14-5.3c0-.68-.33-1-.82-1s-.78.31-.77,1Zm6.7-7.72,1.43,0L239.9,315l-1.43,0Zm-.57,8a2.34,2.34,0,1,1,4.68-.11l.12,5.08a2.34,2.34,0,1,1-4.68.11Zm1.67,5.16c0,.68.31,1,.82.95s.79-.31.77-1l-.13-5.3c0-.69-.33-1-.82-1s-.79.31-.77,1Z" style="fill:#fff"></path><polygon points="281.79 338.4 192.19 343.79 271.56 294 281.79 338.4" style="fill-opacity:0.7000000000000001;opacity:0.2"></polygon></g><polygon points="292.68 358.52 279.96 373.69 201.07 376.45 178.55 364.18 178.75 363.75 187.88 343.79 198.89 267.31 264.99 265.51 271.56 294 281.79 338.4 292.64 358.44 292.68 358.52" style="fill:none;stroke:#263238;stroke-linecap:round;stroke-linejoin:round"></polygon><line x1="178.55" y1="364.18" x2="288.19" y2="358.78" style="fill:#419183;stroke:#263238;stroke-linecap:round;stroke-linejoin:round"></line><path d="M219.1,269.11S214.88,253,227,250.39s17.14,7.12,15,17.67" style="fill:none;stroke:#263238;stroke-linecap:round;stroke-linejoin:round;stroke-width:2px"></path><polyline points="187.97 365.64 208.55 369.86 201.95 374.04" style="fill:none;stroke:#263238;stroke-linecap:round;stroke-linejoin:round"></polyline><polyline points="213.19 369.84 271.31 368.28 283.18 361.48" style="fill:none;stroke:#263238;stroke-linecap:round;stroke-linejoin:round"></polyline><line x1="271.32" y1="368.28" x2="277.65" y2="371.44" style="fill:none;stroke:#263238;stroke-linecap:round;stroke-linejoin:round"></line><line x1="187.88" y1="343.79" x2="273.43" y2="339.27" style="fill:#419183;stroke:#263238;stroke-linecap:round;stroke-linejoin:round"></line><polygon points="322.98 368.19 177.02 368.19 160.65 230.14 339.35 230.14 322.98 368.19" style="fill:none;stroke:#263238;stroke-linecap:round;stroke-linejoin:round;stroke-width:3px"></polygon><polyline points="198.58 368.19 187.05 230.14 312.95 230.14 301.42 368.19" style="fill:none;stroke:#263238;stroke-linecap:round;stroke-linejoin:round;stroke-width:3px"></polyline><polyline points="222.73 368.19 216.61 230.14 283.39 230.14 277.27 368.19" style="fill:none;stroke:#263238;stroke-linecap:round;stroke-linejoin:round;stroke-width:3px"></polyline><line x1="250" y1="230.14" x2="250" y2="368.19" style="fill:none;stroke:#263238;stroke-linecap:round;stroke-linejoin:round;stroke-width:3px"></line><rect x="155.28" y="223.19" width="189.45" height="9.86" rx="3.31" style="fill:#419183;stroke:#263238;stroke-linecap:round;stroke-linejoin:round"></rect><line x1="164.02" y1="257.71" x2="335.98" y2="257.71" style="fill:none;stroke:#263238;stroke-linecap:round;stroke-linejoin:round;stroke-width:3px"></line><line x1="167.87" y1="286.23" x2="332.13" y2="286.23" style="fill:none;stroke:#263238;stroke-linecap:round;stroke-linejoin:round;stroke-width:3px"></line><line x1="171.39" y1="314.74" x2="328.61" y2="314.74" style="fill:none;stroke:#263238;stroke-linecap:round;stroke-linejoin:round;stroke-width:3px"></line><line x1="174.54" y1="343.26" x2="325.46" y2="343.26" style="fill:none;stroke:#263238;stroke-linecap:round;stroke-linejoin:round;stroke-width:3px"></line><path d="M175.42,409.5h-7.84a3.27,3.27,0,0,0-3.27,3.28v15.41c0,2.77,2.2,4.45,2.79,2.13l4-15.7a2.63,2.63,0,0,1,2.55-2h2.58v15.55c0,2.77,2.2,4.45,2.79,2.13l3.68-14.53a3.8,3.8,0,0,0-2.18-4.44l-3.57-1.54A3.92,3.92,0,0,0,175.42,409.5Z" style="fill:#263238"></path><path d="M165.8,417.93c-2.63,0-4.76,5.39-4.76,12s2.13,12,4.76,12h10.41V417.93Z" style="fill:#757575;stroke:#263238;stroke-linecap:round;stroke-linejoin:round"></path><ellipse cx="176.21" cy="429.97" rx="4.75" ry="12.03" style="fill:#999;stroke:#263238;stroke-linecap:round;stroke-linejoin:round"></ellipse><path d="M179.59,430c0,3.32-1.06,6-2.38,6s-2.38-2.69-2.38-6,1.07-6,2.38-6S179.59,426.64,179.59,430Z" style="fill:#263238"></path><path d="M180.5,411.35l-3.57-1.54a3.92,3.92,0,0,0-1.51-.31h-2.5v3.26a2.4,2.4,0,0,1,.71-.12h2.58v15.55c0,2.77,2.2,4.45,2.79,2.13l3.68-14.53A3.8,3.8,0,0,0,180.5,411.35Z" style="fill:#263238"></path><path d="M172.14,401.85v8.83l6.17.88,1.28-8.83S178,401.85,172.14,401.85Z" style="fill:#263238"></path><path d="M324.58,409.5h7.84a3.27,3.27,0,0,1,3.27,3.28v15.41c0,2.77-2.2,4.45-2.79,2.13l-4-15.7a2.63,2.63,0,0,0-2.55-2h-2.58v15.55c0,2.77-2.2,4.45-2.79,2.13l-3.68-14.53a3.8,3.8,0,0,1,2.18-4.44l3.57-1.54A3.92,3.92,0,0,1,324.58,409.5Z" style="fill:#263238"></path><path d="M334.2,417.93c2.63,0,4.76,5.39,4.76,12s-2.13,12-4.76,12H323.79V417.93Z" style="fill:#757575;stroke:#263238;stroke-linecap:round;stroke-linejoin:round"></path><ellipse cx="323.79" cy="429.97" rx="4.75" ry="12.03" style="fill:#999;stroke:#263238;stroke-linecap:round;stroke-linejoin:round"></ellipse><path d="M320.41,430c0,3.32,1.06,6,2.38,6s2.38-2.69,2.38-6-1.07-6-2.38-6S320.41,426.64,320.41,430Z" style="fill:#263238"></path><path d="M319.5,411.35l3.57-1.54a3.92,3.92,0,0,1,1.51-.31h2.5v3.26a2.4,2.4,0,0,0-.71-.12h-2.58v15.55c0,2.77-2.2,4.45-2.79,2.13l-3.68-14.53A3.8,3.8,0,0,1,319.5,411.35Z" style="fill:#263238"></path><path d="M327.86,401.85v8.83l-6.17.88-1.28-8.83S322,401.85,327.86,401.85Z" style="fill:#263238"></path><path d="M199.49,420h-5.31a2.22,2.22,0,0,0-2.22,2.22v10.44c0,1.87,1.49,3,1.89,1.44l2.7-10.63a1.79,1.79,0,0,1,1.73-1.35H200v10.54c0,1.87,1.49,3,1.89,1.44l2.5-9.84a2.59,2.59,0,0,0-1.48-3l-2.42-1A2.55,2.55,0,0,0,199.49,420Z" style="fill:#263238"></path><path d="M193,425.7c-1.78,0-3.22,3.65-3.22,8.15S191.19,442,193,442H200V425.7Z" style="fill:#263238"></path><ellipse cx="200.02" cy="433.85" rx="3.22" ry="8.15" style="fill:#263238"></ellipse><path d="M202.31,433.85c0,2.25-.72,4.07-1.61,4.07s-1.61-1.82-1.61-4.07.72-4.07,1.61-4.07S202.31,431.6,202.31,433.85Z" style="fill:#263238"></path><path d="M202.93,421.24l-2.42-1a2.55,2.55,0,0,0-1-.21H197.8v2.21a1.51,1.51,0,0,1,.48-.09H200v10.54c0,1.87,1.49,3,1.89,1.44l2.5-9.84A2.59,2.59,0,0,0,202.93,421.24Z" style="fill:#263238"></path><path d="M197.27,414.81v6l4.18.59.86-6S201.25,414.81,197.27,414.81Z" style="fill:#263238"></path><path d="M300.51,420h5.31a2.22,2.22,0,0,1,2.22,2.22v10.44c0,1.87-1.49,3-1.89,1.44l-2.7-10.63a1.79,1.79,0,0,0-1.73-1.35H300v10.54c0,1.87-1.49,3-1.89,1.44l-2.5-9.84a2.59,2.59,0,0,1,1.48-3l2.42-1A2.55,2.55,0,0,1,300.51,420Z" style="fill:#263238"></path><path d="M307,425.7c1.78,0,3.22,3.65,3.22,8.15S308.81,442,307,442h-7V425.7Z" style="fill:#263238"></path><ellipse cx="299.98" cy="433.85" rx="3.22" ry="8.15" style="fill:#263238"></ellipse><path d="M297.69,433.85c0,2.25.72,4.07,1.61,4.07s1.61-1.82,1.61-4.07-.72-4.07-1.61-4.07S297.69,431.6,297.69,433.85Z" style="fill:#263238"></path><path d="M297.07,421.24l2.42-1a2.55,2.55,0,0,1,1-.21h1.69v2.21a1.51,1.51,0,0,0-.48-.09H300v10.54c0,1.87-1.49,3-1.89,1.44l-2.5-9.84A2.59,2.59,0,0,1,297.07,421.24Z" style="fill:#263238"></path><path d="M302.74,414.81v6l-4.19.59-.86-6S298.75,414.81,302.74,414.81Z" style="fill:#263238"></path><polygon points="293.04 379.89 206.76 379.89 177.02 368.19 322.79 368.19 293.04 379.89" style="fill:#263238;stroke:#263238;stroke-linecap:round;stroke-linejoin:round;stroke-width:3px"></polygon><polyline points="165.87 401.85 197.26 414.81 302.74 414.81 332.35 401.85 167.65 401.85" style="fill:none;stroke:#263238;stroke-linecap:round;stroke-linejoin:round;stroke-width:3px"></polyline><polyline points="293.04 379.89 293.04 406.7 302.74 414.81" style="fill:none;stroke:#263238;stroke-linecap:round;stroke-linejoin:round;stroke-width:3px"></polyline><polyline points="206.76 379.89 206.76 406.7 197.26 414.81" style="fill:none;stroke:#263238;stroke-linecap:round;stroke-linejoin:round;stroke-width:3px"></polyline></g></svg>